<?xml version="1.0" encoding="utf-8"?>
<!-- Generator: Adobe Illustrator 21.1.0, SVG Export Plug-In . SVG Version: 6.00 Build 0)  -->
<svg version="1.1" id="Layer_1" xmlns="http://www.w3.org/2000/svg" xmlns:xlink="http://www.w3.org/1999/xlink" x="0px" y="0px"
	 viewBox="0 0 500 500" style="enable-background:new 0 0 500 500;" xml:space="preserve">
<style type="text/css">
	.st0{fill:#DC4E7D;}
</style>
<path class="st0" d="M37,281.8c0,102.9,83.4,186.3,186.3,186.3c102.8,0,186.3-83.4,186.3-186.3c0-35.2-15.1-79.9-27.3-98.8
	c-10.5-16.3-14.2-26.7-14.2-42c0-31.8,33.5-63.6,68.7-63.6h4.5c12.5,0,22.7-10.2,22.7-22.7S453.8,32,441.3,32h-4.5
	c-55.9,0-103.7,29.8-115,90.9c-23.3-17.6-59.4-27.3-98.5-27.3C120.4,95.5,37,179,37,281.8z M200.5,281.8c0-12.5,10.2-22.7,22.7-22.7
	s22.7,10.2,22.7,22.7c0,12.5-10.2,22.7-22.7,22.7S200.5,294.3,200.5,281.8z M82.4,281.8c0-22.6,18.3-40.9,40.9-40.9
	c22.6,0,40.9,18.3,40.9,40.9c0,22.6-18.3,40.9-40.9,40.9C100.7,322.7,82.4,304.4,82.4,281.8z M282.3,281.8
	c0-22.6,18.3-40.9,40.9-40.9c22.6,0,40.9,18.3,40.9,40.9c0,22.6-18.3,40.9-40.9,40.9C300.6,322.7,282.3,304.4,282.3,281.8z
	 M182.4,381.7c0-22.6,18.3-40.9,40.9-40.9s40.9,18.3,40.9,40.9c0,22.6-18.3,40.9-40.9,40.9S182.4,404.4,182.4,381.7z M182.4,181.9
	c0-22.6,18.3-40.9,40.9-40.9s40.9,18.3,40.9,40.9c0,22.6-18.3,40.9-40.9,40.9S182.4,204.5,182.4,181.9z"/>
</svg>
